<svg width="220" height="64" viewBox="0 0 220 64" fill="none" xmlns="http://www.w3.org/2000/svg" role="img" aria-label="Veriq">
  <path d="M42.6 13.2H28.3L13.6 27.9v20.7L28.3 56h20.8l7.3-7.3V36.4h-7.8v8.9l-2.8 2.9H31.5l-10.1-5.1V31.1l10.1-10.1h11.1v-7.8Z" fill="#F8FAFC"/>
  <path d="m25.5 34.1 5.7 5.7L47 24" stroke="#00D6C9" stroke-width="6" stroke-linecap="round" stroke-linejoin="round"/>
  <rect x="48" y="12" width="6" height="6" rx="1" fill="#00D6C9"/>
  <rect x="40" y="20" width="5" height="5" rx="1" fill="#00D6C9"/>
  <path d="M82.8 48 65.6 17.6h9.7l10 19.6 10-19.6h9.4L87.6 48h-4.8Zm36.2.8c-3.4 0-6.4-.7-8.9-2-2.5-1.3-4.5-3.2-5.9-5.6-1.4-2.4-2.1-5.1-2.1-8.2 0-3 .7-5.7 2-8.1a14.6 14.6 0 0 1 5.7-5.7c2.4-1.4 5.2-2.1 8.3-2.1 3 0 5.7.7 7.9 2 2.2 1.3 4 3.1 5.2 5.4 1.3 2.3 1.9 4.9 1.9 7.9v2.4h-22.4c.4 2.1 1.4 3.7 3 4.8 1.6 1 3.6 1.6 6 1.6 1.7 0 3.3-.2 4.8-.7 1.5-.5 2.9-1.2 4.2-2.2l3.2 5.8c-1.6 1.5-3.6 2.7-5.9 3.5-2.3.8-4.6 1.2-7 1.2Zm-8.2-19.8h14.2c-.2-1.8-.9-3.2-2.1-4.3-1.2-1.1-2.8-1.6-4.8-1.6-2 0-3.6.5-4.9 1.6-1.2 1.1-2 2.5-2.4 4.3ZM139 48V17.6h8.1v4.6c1-1.6 2.3-2.9 4-3.7 1.7-.9 3.6-1.3 5.8-1.3h1.8v7.9h-2.4c-2.7 0-4.9.7-6.5 2.2-1.5 1.4-2.3 3.6-2.3 6.5V48H139Zm24.8-34.7a5 5 0 0 1-3.6-1.4 4.6 4.6 0 0 1-1.4-3.5c0-1.4.5-2.6 1.4-3.5a5 5 0 0 1 3.6-1.4c1.4 0 2.6.5 3.5 1.4 1 .9 1.5 2.1 1.5 3.5s-.5 2.6-1.5 3.5a4.8 4.8 0 0 1-3.5 1.4ZM159.6 48V17.6h8.5V48h-8.5Zm31.5 11.6V44.7a11.4 11.4 0 0 1-9.2 4.1c-2.8 0-5.3-.7-7.5-2.1a14.6 14.6 0 0 1-5.2-5.7 17.8 17.8 0 0 1-1.9-8.3c0-3.1.6-5.9 1.9-8.2 1.3-2.4 3-4.2 5.2-5.5a13.7 13.7 0 0 1 7.5-2.1c2 0 3.8.4 5.4 1.1 1.6.8 2.9 1.8 4 3.1v-3.5h8.2v42h-8.4Zm-7.8-18.1c2.4 0 4.4-.8 5.9-2.5 1.5-1.7 2.2-3.8 2.2-6.3 0-2.6-.7-4.7-2.2-6.4a7.6 7.6 0 0 0-5.9-2.4c-2.3 0-4.2.8-5.7 2.4-1.5 1.7-2.2 3.8-2.2 6.4 0 2.5.7 4.6 2.2 6.3a7.3 7.3 0 0 0 5.7 2.5Z" fill="#F8FAFC"/>
</svg>

